Input #0, mov,mp4,m4a,3gp,3g2,mj2, from '/home/hbattu/projects/huberman-gpt/huberman-audio/mp3/tmpeir7d4bx.mp4':
  Metadata:
    major_brand     : dash
    minor_version   : 0
    compatible_brands: iso6mp41
    creation_time   : 2022-10-26T20:30:38.000000Z
  Duration: 02:34:23.72, start: 0.000000, bitrate: 129 kb/s
    Stream #0:0(eng): Audio: aac (LC) (mp4a / 0x6134706D), 44100 Hz, stereo, fltp, 0 kb/s (default)
    Metadata:
      creation_time   : 2022-10-26T20:30:38.000000Z
      handler_name    : ISO Media file produced by Google Inc.
Stream mapping:
  Stream #0:0 -> #0:0 (aac (native) -> mp3 (libmp3lame))
Press [q] to stop, [?] for help
[graph_0_in_0_0 @ 0x562c28401e40] tb:1/44100 samplefmt:fltp samplerate:44100 chlayout:0x3
Output #0, mp3, to '../huberman-audio/mp3/Z7MU6zrAXsM.mp3':
  Metadata:
    major_brand     : dash
    minor_version   : 0
    compatible_brands: iso6mp41
    TSSE            : Lavf58.29.100
    Stream #0:0(eng): Audio: mp3 (libmp3lame), 44100 Hz, stereo, fltp, delay 1105 (default)
    Metadata:
      creation_time   : 2022-10-26T20:30:38.000000Z
      handler_name    : ISO Media file produced by Google Inc.
      encoder         : Lavc58.54.100 libmp3lame
No more output streams to write to, finishing.
size=  144746kB time=02:34:23.72 bitrate= 128.0kbits/s speed=92.8x    
[AVIOContext @ 0x562c282ed900] Statistics: 0 seeks, 200 writeouts
video:0kB audio:144746kB subtitle:0kB other streams:0kB global headers:0kB muxing overhead: 0.000233%
Input file #0 (/home/hbattu/projects/huberman-gpt/huberman-audio/mp3/tmpeir7d4bx.mp4):
  Input stream #0:0 (audio): 398955 packets read (148219472 bytes); 398955 frames decoded (408529920 samples); 
  Total: 398955 packets (148219472 bytes) demuxed
Output file #0 (../huberman-audio/mp3/Z7MU6zrAXsM.mp3):
  Output stream #0:0 (audio): 354627 frames encoded (408529920 samples); 354628 packets muxed (148220029 bytes); 
  Total: 354628 packets (148220029 bytes) muxed
[AVIOContext @ 0x562c28316840] Statistics: 2 seeks, 567 writeouts
[AVIOContext @ 0x562c282f6880] Statistics: 149923604 bytes read, 0 seeks
